<svg width="63" height="66" viewBox="0 0 63 66" version="1.1" xmlns="http://www.w3.org/2000/svg" xmlns:xlink="http://www.w3.org/1999/xlink">
<title>Fill 1</title>
<desc>Created using Figma</desc>
<g id="Canvas" transform="translate(-5571 -4785)">
<rect x="5571" y="4785" width="63" height="66" fill="#FFFFFF"/>
<clipPath id="clip-0" clip-rule="evenodd">
<path d="M 5553 4753L 6993 4753L 6993 5887L 5553 5887L 5553 4753Z" fill="#FFFFFF"/>
</clipPath>
<g id="Cash &#38; Accounts" clip-path="url(#clip-0)">
<path d="M 5553 4753L 6993 4753L 6993 5887L 5553 5887L 5553 4753Z" fill="#FFFFFF"/>
<g id="Menu / Left Bar / Implode">
<g id="Circle Logo">
<g id="Group 8">
<g id="Group 3">
<mask id="mask0_outline" mask-type="alpha">
<g id="Clip 2">
<use xlink:href="#path0_fill" transform="translate(5571 4785.25)" fill="#FFFFFF"/>
</g>
</mask>
<g id="Fill 1" mask="url(#mask0_outline)">
<use xlink:href="#path1_fill" transform="translate(5571 4785.25)" fill="#FEDB00"/>
</g>
</g>
<g id="Fill 4">
<use xlink:href="#path2_fill" transform="translate(5571.21 4785.58)" fill="#FEDB00"/>
</g>
<g id="Fill 6">
<use xlink:href="#path3_fill" transform="translate(5571.55 4786.2)" fill="#FEDB00"/>
</g>
</g>
<g id="circle">
<use xlink:href="#path4_fill" transform="translate(5585 4803.56)" fill="#262626"/>
</g>
</g>
</g>
</g>
</g>
<defs>
<path id="path0_fill" fill-rule="evenodd" d="M 0 65.1519L 0 0L 62.0489 0L 62.0489 65.1519L 0 65.1519Z"/>
<path id="path1_fill" fill-rule="evenodd" d="M 29.7152 61.1654C 29.7152 61.1654 29.5553 61.1564 29.2452 61.1387C 29.0902 61.1302 28.8981 61.119 28.6694 61.106C 28.4411 61.0953 28.1766 61.0791 27.8782 61.0412C 27.5802 61.0085 27.2475 60.972 26.881 60.9319C 26.5159 60.8791 26.1194 60.8102 25.6904 60.7419C 25.4755 60.7115 25.2549 60.6644 25.0268 60.6135C 24.799 60.5641 24.5631 60.5132 24.3198 60.4607C 24.0755 60.4136 23.8279 60.3442 23.5728 60.2745C 23.3179 60.2053 23.0554 60.1347 22.7856 60.0616C 21.7183 59.731 20.5426 59.3413 19.3188 58.7771C 18.0923 58.2256 16.7961 57.5541 15.4992 56.6936C 12.9007 54.9942 10.2343 52.6196 8.00168 49.4991C 6.88569 47.9427 5.87999 46.2069 5.04864 44.3177C 4.21457 42.4298 3.58102 40.3786 3.16805 38.2306C 2.75689 36.0823 2.57307 33.8296 2.68606 31.5429C 2.70163 31.2576 2.71742 30.9713 2.73298 30.6845C 2.74606 30.3975 2.78869 30.1122 2.81462 29.8249C 2.84801 29.5386 2.86718 29.2502 2.91161 28.9642C 2.95559 28.6784 3.00025 28.3918 3.04445 28.1044C 3.06791 27.9611 3.08618 27.8169 3.11324 27.6741L 3.20121 27.246C 3.25962 26.9608 3.31826 26.675 3.37691 26.3882C 3.4493 26.1052 3.5217 25.8215 3.59455 25.5372C 3.6656 25.2526 3.738 24.9681 3.8307 24.6886C 5.15148 20.172 7.72133 15.917 11.2076 12.596C 14.6839 9.26073 19.1045 6.93067 23.7624 5.97264C 24.924 5.7163 26.1072 5.58372 27.2866 5.49688C 27.8786 5.47087 28.4684 5.43442 29.0602 5.453C 29.6512 5.44301 30.2405 5.48991 30.8283 5.52335C 32.0007 5.62668 33.166 5.77574 34.3035 6.043C 34.8766 6.15283 35.4346 6.32604 35.9959 6.47395C 36.2749 6.55452 36.5487 6.65367 36.8246 6.74167L 37.2376 6.8768C 37.3747 6.92324 37.5084 6.98036 37.6435 7.03121C 41.9918 8.63753 45.7579 11.4958 48.5141 14.9541C 48.6846 15.1717 48.8551 15.3888 49.0251 15.6052C 49.1851 15.8299 49.3445 16.054 49.5035 16.2778C 49.5825 16.39 49.6648 16.4991 49.7408 16.6131L 49.9625 16.9589C 50.1098 17.1887 50.2566 17.4181 50.4034 17.6469C 50.5392 17.8825 50.675 18.1177 50.8103 18.352C 50.8773 18.4695 50.9479 18.5847 51.0122 18.7033L 51.1971 19.0635C 51.3205 19.3024 51.4436 19.5409 51.5666 19.7789C 51.6778 20.0227 51.7885 20.2658 51.8992 20.5084C 52.7854 22.4475 53.37 24.4664 53.739 26.4595C 54.11 28.4548 54.2163 30.4419 54.1218 32.3535C 54.0288 34.2649 53.7322 36.0916 53.2771 37.7945C 52.3684 41.2066 50.8223 44.1023 49.0944 46.3812C 48.2306 47.5239 47.3218 48.5179 46.4228 49.3812C 45.524 50.2468 44.6113 50.9527 43.7655 51.571C 42.0482 52.777 40.5276 53.5356 39.3956 54.0202C 38.2629 54.5085 37.5172 54.7388 37.2662 54.8247C 36.2673 55.1897 35.3243 55.5631 34.4613 56.0205C 34.0249 56.223 33.6137 56.4768 33.2186 56.7108C 32.8228 56.9405 32.4524 57.2124 32.1053 57.4706C 31.7577 57.726 31.4377 58.0027 31.1508 58.2955C 30.8639 58.5842 30.6091 58.8684 30.397 59.1793C 29.9735 59.7957 29.7157 60.4675 29.7152 61.1654C 29.7148 61.8634 29.9771 62.5219 30.4938 63.1135C 30.752 63.4061 31.0732 63.6947 31.453 63.9395C 31.8326 64.18 32.2711 64.3973 32.7625 64.5873C 33.2533 64.7744 33.7942 64.8991 34.3806 65.0087C 34.9663 65.113 35.5904 65.1399 36.2504 65.152C 37.5599 65.1243 39.0009 64.9117 40.4245 64.3976C 40.7806 64.2738 41.8287 63.8995 43.3974 63.1279C 44.9636 62.3601 47.0505 61.1736 49.3493 59.3536C 50.4851 58.429 51.6908 57.3707 52.8677 56.1055C 54.0451 54.8428 55.217 53.4016 56.3116 51.7674C 58.5011 48.5091 60.3745 44.4403 61.3342 39.7856C 61.8157 37.4632 62.0697 35.0047 62.0478 32.4828C 62.0277 29.9629 61.7361 27.3644 61.1044 24.7856C 60.4755 22.2095 59.5574 19.6395 58.2776 17.2122C 58.117 16.9096 57.956 16.6062 57.7947 16.3022C 57.6202 16.0062 57.4451 15.7094 57.2699 15.4122L 57.0051 14.9671C 56.9142 14.8206 56.8168 14.6776 56.7225 14.5327C 56.5321 14.2443 56.3416 13.9552 56.1503 13.6654C 55.9509 13.3819 55.7436 13.1033 55.5395 12.8221L 55.2314 12.4009C 55.1263 12.2623 55.0149 12.1288 54.9064 11.9923C 54.6881 11.7213 54.4691 11.4499 54.2499 11.1777C 54.0191 10.9163 53.7879 10.6541 53.5563 10.3917L 53.2074 9.99957L 52.8418 9.62249C 52.5969 9.37219 52.3515 9.12165 52.1056 8.87065C 51.8492 8.63149 51.5923 8.39187 51.3347 8.15178C 51.2053 8.03289 51.0789 7.91053 50.9463 7.7949L 50.5437 7.45334C 49.4832 6.5255 48.3329 5.69958 47.1529 4.91965C 46.8525 4.73273 46.5521 4.54558 46.251 4.3582C 45.953 4.16664 45.6357 4.00713 45.3283 3.83066C 44.715 3.47378 44.0706 3.17425 43.435 2.85824C 43.1139 2.70685 42.7848 2.57217 42.4598 2.42914L 41.9704 2.21808C 41.8057 2.15121 41.6381 2.09153 41.4721 2.02814L 40.4728 1.65524L 39.4562 1.3311C 39.2864 1.27886 39.1181 1.22058 38.9467 1.17344L 38.4307 1.03714C 38.0858 0.948911 37.7439 0.850461 37.397 0.772444C 36.6996 0.629413 36.0068 0.466181 35.301 0.371446C 33.8975 0.134377 32.4747 0.0354623 31.0565 0.000168976C 30.3465 0.000865555 29.6372 -0.00795779 28.929 0.0445179C 28.2201 0.068666 27.5144 0.151559 26.8095 0.227951C 25.4035 0.415563 24.004 0.664938 22.6395 1.05177C 17.1642 2.53108 12.1738 5.5951 8.40518 9.66591C 4.62123 13.7249 2.0144 18.7247 0.832096 23.8499C 0.747968 24.1673 0.685041 24.4894 0.623919 24.8109C 0.561443 25.1318 0.499419 25.4518 0.437394 25.7713C 0.390481 26.0933 0.343794 26.4145 0.29688 26.7349L 0.227864 27.2144C 0.206889 27.3744 0.19516 27.5355 0.178696 27.6955C 0.148022 28.0154 0.117573 28.3349 0.0871248 28.6535C 0.0571275 28.9718 0.0528422 29.2916 0.0347987 29.6088C 0.0239726 29.9266 -0.00309266 30.2426 0.000290495 30.5587C 0.00119267 30.8744 0.00209484 31.1893 0.00299702 31.5035C 0.0251003 34.0142 0.368152 36.4561 0.947574 38.7539C 1.52925 41.0512 2.34031 43.2118 3.34691 45.1727C 4.35125 47.1352 5.52498 48.9082 6.79547 50.4755C 9.33848 53.6173 12.2581 55.9093 15.0371 57.4963C 16.4246 58.3002 17.7943 58.9071 19.0799 59.3931C 20.3624 59.8919 21.5819 60.2148 22.6821 60.4828C 22.9595 60.5399 23.2295 60.5954 23.4918 60.6493C 23.7539 60.7038 24.0076 60.7582 24.2577 60.7909C 24.5063 60.829 24.7474 60.8657 24.9802 60.901C 25.2127 60.9381 25.4373 60.9718 25.6561 60.9892C 26.0925 61.0315 26.4949 61.076 26.8639 61.1065C 27.234 61.1241 27.5703 61.1401 27.8712 61.1543C 28.1716 61.174 28.4377 61.174 28.6673 61.1703C 28.8965 61.1696 29.0896 61.1687 29.2447 61.1678C 29.5551 61.1664 29.7152 61.1654 29.7152 61.1654"/>
<path id="path2_fill" fill-rule="evenodd" d="M 26.3544 60.647C 26.3544 60.647 26.2018 60.6227 25.9061 60.5753C 25.6104 60.5277 25.1703 60.4676 24.6049 60.3366C 23.4702 60.1111 21.8149 59.6878 19.8101 58.8775C 18.8181 58.4472 17.7227 57.9631 16.5972 57.3028C 15.4666 56.6575 14.28 55.8894 13.104 54.9458C 10.7452 53.0792 8.36012 50.5768 6.42947 47.3958C 4.49723 44.227 3.03796 40.3819 2.48764 36.1671C 2.20481 34.0637 2.16804 31.8699 2.37802 29.6615C 2.40599 29.3859 2.43396 29.1094 2.46193 28.8322C 2.49576 28.5558 2.5438 28.2805 2.58372 28.0037C 2.62996 27.7281 2.65815 27.4487 2.71837 27.1743C 2.77385 26.8994 2.82956 26.6235 2.8855 26.3472C 2.93579 26.0697 3.00436 25.796 3.07608 25.5225C 3.14555 25.2485 3.21479 24.9738 3.28448 24.6986C 3.36658 24.4272 3.44891 24.1553 3.53191 23.8827C 3.61648 23.6111 3.69204 23.3361 3.79489 23.0693C 4.54821 20.9153 5.54173 18.81 6.82845 16.8728L 7.31179 16.147L 7.82851 15.4427C 7.91557 15.3259 7.9988 15.2061 8.08856 15.0914L 8.36395 14.7517L 8.91631 14.0726C 9.31056 13.6421 9.68045 13.1881 10.1004 12.7804C 10.3066 12.5731 10.5071 12.3599 10.7171 12.1565L 11.361 11.56C 14.8292 8.41726 19.1384 6.18054 23.6969 5.2866C 25.9688 4.8106 28.3013 4.69706 30.5958 4.84938C 30.8834 4.8575 31.1682 4.90208 31.4535 4.92948C 31.7384 4.96431 32.0248 4.98312 32.3077 5.02909C 32.8722 5.12638 33.4397 5.19627 33.9952 5.33094C 35.1152 5.54874 36.2037 5.88914 37.2741 6.25136C 41.5365 7.78407 45.2985 10.4469 48.1023 13.7545C 48.2843 13.9544 48.4525 14.1668 48.6185 14.38C 48.7859 14.5915 48.9528 14.8028 49.1195 15.0134C 49.2762 15.2321 49.4323 15.4502 49.5886 15.668L 49.8227 15.993L 50.0404 16.3292C 50.1852 16.5528 50.33 16.7757 50.4743 16.9982C 50.6124 17.2248 50.7418 17.4561 50.876 17.6834C 51.1528 18.1325 51.3794 18.6087 51.625 19.0691C 52.5635 20.9376 53.2375 22.885 53.6969 24.8222C 54.1583 26.7612 54.3726 28.7017 54.3855 30.582C 54.4015 32.4641 54.2211 34.2808 53.883 35.9853C 53.209 39.4016 51.902 42.3586 50.3913 44.7471C 49.6353 45.9446 48.813 46.9927 47.9999 47.9191C 47.791 48.1458 47.6011 48.3824 47.3896 48.5904C 47.1821 48.8017 46.9784 49.0093 46.7792 49.2125C 46.5792 49.4149 46.3674 49.5963 46.17 49.7836C 45.9718 49.9701 45.7776 50.1521 45.5746 50.3144C 43.9949 51.666 42.5679 52.5625 41.4993 53.1549C 40.4304 53.7502 39.7202 54.0574 39.4806 54.167C 38.5322 54.6297 37.6337 55.0786 36.8255 55.5943C 36.4157 55.8344 36.0282 56.0898 35.6651 56.3591C 35.2973 56.6087 34.9553 56.8769 34.6421 57.1583C 33.3862 58.2304 32.5377 59.4206 32.662 60.647C 32.7833 61.8542 33.9395 62.874 35.8697 63.3029C 36.3472 63.3964 36.8709 63.4587 37.4325 63.4872C 37.9893 63.4963 38.5832 63.4668 39.2023 63.3941C 40.4288 63.2139 41.7634 62.8638 43.0564 62.2387C 43.3807 62.0883 44.3328 61.6327 45.7438 60.761C 47.153 59.8922 49.0198 58.5879 51.0409 56.6721C 51.2991 56.439 51.5481 56.1843 51.8014 55.9226C 52.0536 55.66 52.3199 55.4006 52.5741 55.1183C 52.8261 54.8343 53.0832 54.5443 53.3453 54.2485C 53.6101 53.9557 53.8521 53.6316 54.1123 53.3151C 55.1313 52.0297 56.1445 50.5836 57.062 48.9533C 58.8963 45.701 60.4046 41.727 61.0476 37.2603C 61.3715 35.031 61.4804 32.6912 61.3363 30.2994C 61.1949 27.9069 60.7925 25.4542 60.0838 23.0341C 59.3777 20.6151 58.3977 18.2174 57.1076 15.9522C 56.774 15.3928 56.4562 14.8205 56.0861 14.2787C 55.9054 14.0052 55.7284 13.7287 55.5427 13.4575C 55.3499 13.1916 55.1564 12.9251 54.9629 12.658L 54.671 12.2584L 54.3618 11.8714C 54.1552 11.6139 53.9479 11.3559 53.7404 11.0972C 53.5219 10.8486 53.3029 10.5996 53.0836 10.3498C 52.8651 10.0997 52.6445 9.85128 52.4088 9.6163C 48.7532 5.74703 44.0129 2.78053 38.8099 1.23111C 37.5049 0.864475 36.1843 0.53685 34.8394 0.348309C 34.1711 0.228265 33.4936 0.177415 32.8199 0.102649C 32.4825 0.0680521 32.143 0.0613185 31.8047 0.0399567C 31.4662 0.0255607 31.1283 -0.00462441 30.7891 0.00234138C 28.0819 -0.0294691 25.3632 0.261469 22.7462 0.960139C 21.4324 1.28382 20.1556 1.7424 18.9034 2.23976C 18.2854 2.51165 17.6615 2.76614 17.0641 3.07844C 16.7641 3.23215 16.4574 3.36961 16.1651 3.53679L 15.2854 4.02973C 14.1295 4.71331 13.0056 5.44727 11.9578 6.2769C 11.4214 6.67418 10.9232 7.11976 10.4157 7.54885C 10.1647 7.76665 9.92765 8.00117 9.68384 8.22616C 9.44138 8.45302 9.19802 8.67778 8.97112 8.92042L 8.2805 9.63372C 8.05586 9.87636 7.84137 10.1285 7.62237 10.3749C 7.17647 10.8606 6.78357 11.3926 6.3697 11.9006C 6.17257 12.1632 5.98266 12.4314 5.78982 12.6959L 5.50248 13.0934C 5.40911 13.2274 5.32205 13.3662 5.23183 13.5023C 5.0532 13.7756 4.87479 14.0486 4.69661 14.321C 4.53039 14.6013 4.36484 14.8811 4.19929 15.1604C 2.88121 17.3987 1.90235 19.7922 1.19978 22.2079C 1.10325 22.5072 1.03446 22.8144 0.957324 23.1181C 0.882669 23.4225 0.803729 23.7246 0.73381 24.0283C 0.673364 24.3341 0.612693 24.639 0.552473 24.9434C 0.489997 25.2473 0.431356 25.5506 0.39166 25.8568C 0.346551 26.1619 0.301668 26.4663 0.257011 26.7698C 0.207842 27.0724 0.191377 27.3789 0.157546 27.6816C 0.129578 27.9853 0.0939425 28.2874 0.0734181 28.5897C 0.0583066 28.8923 0.0436463 29.1941 0.0289859 29.4951C -0.0725087 31.9013 0.0932659 34.2585 0.514807 36.4971C 1.34278 40.9821 3.11149 44.9603 5.30851 48.1636C 7.50599 51.3807 10.1146 53.8275 12.6371 55.6087C 13.8956 56.5091 15.1503 57.2268 16.3372 57.8194C 17.5181 58.4273 18.6573 58.8571 19.6829 59.2353C 21.7547 59.9416 23.4386 60.2723 24.5882 60.4348C 25.1611 60.534 25.605 60.5695 25.9029 60.6008C 26.2009 60.6312 26.3544 60.647 26.3544 60.647"/>
<path id="path3_fill" fill-rule="evenodd" d="M 20.9818 58.9787C 20.9818 58.9787 20.9466 58.9676 20.8773 58.9455C 20.8079 58.9241 20.7044 58.8923 20.5708 58.8399C 20.3024 58.7395 19.9046 58.5902 19.3854 58.3957C 18.3634 57.9673 16.8685 57.3088 15.1066 56.2124C 14.2182 55.6788 13.2887 54.9982 12.3024 54.231C 11.3362 53.4346 10.3291 52.527 9.33673 51.4712C 7.3727 49.3466 5.4443 46.6453 4.00465 43.3656C 2.56095 40.0974 1.6272 36.2549 1.56314 32.1609C 1.493 28.0752 2.27157 23.7445 4.09419 19.7302C 5.00742 17.7286 6.13965 15.7908 7.52471 14.0247C 8.90978 12.2614 10.4904 10.6228 12.2817 9.23618L 12.9535 8.71676L 13.6494 8.22939C 14.1065 7.89341 14.5991 7.61176 15.0755 7.30457C 16.0545 6.73476 17.0533 6.19236 18.0975 5.75073C 19.1303 5.28356 20.2055 4.91878 21.2869 4.5886C 21.8355 4.45045 22.3752 4.27816 22.9316 4.1746L 23.76 3.99744L 24.5963 3.86393C 26.8261 3.50844 29.1004 3.47779 31.329 3.71184C 31.8879 3.7548 32.4394 3.85859 32.9915 3.93962C 33.2689 3.97445 33.5398 4.04713 33.8136 4.09914C 34.0861 4.15904 34.3606 4.20571 34.6306 4.27537C 35.1676 4.42467 35.7116 4.53984 36.2371 4.72234L 37.0299 4.97381L 37.8078 5.26568C 41.9494 6.83577 45.5868 9.49043 48.354 12.7137C 51.1219 15.9435 53.0345 19.7223 54.0005 23.5237C 54.9875 27.3231 55.0788 31.1304 54.5585 34.5274C 54.0397 37.9315 52.9147 40.9268 51.5619 43.3851C 50.8783 44.6124 50.141 45.7091 49.4023 46.6873C 49.0182 47.1654 48.6582 47.6335 48.2746 48.0498C 47.9099 48.4833 47.5238 48.8637 47.1658 49.2373C 46.8022 49.6051 46.4346 49.9329 46.0961 50.254C 45.7384 50.5533 45.41 50.848 45.0865 51.1074C 44.7572 51.3588 44.4541 51.6015 44.1652 51.8169C 43.87 52.0238 43.597 52.2151 43.3469 52.3905C 43.0972 52.5662 42.8564 52.7041 42.6489 52.84C 42.438 52.9702 42.2578 53.0961 42.0922 53.1876C 41.7645 53.3756 41.5399 53.5047 41.426 53.5702C 39.6135 54.6374 37.9842 55.6567 36.7958 56.6737C 36.1988 57.1636 35.7242 57.6838 35.4076 58.1579C 35.0945 58.6439 34.9511 59.1306 35.0435 59.5833C 35.136 60.0366 35.459 60.4123 35.9895 60.6976C 36.5222 60.9953 37.2509 61.1553 38.1423 61.2073C 39.9058 61.2809 42.3157 60.7664 44.6109 59.4178C 44.7527 59.3319 45.0317 59.1628 45.4391 58.916C 45.6429 58.7934 45.8667 58.6309 46.1261 58.4577C 46.3821 58.2786 46.6762 58.0922 46.9827 57.8614C 47.2885 57.6297 47.6221 57.3773 47.9827 57.104C 48.3355 56.8209 48.7052 56.5042 49.1032 56.172C 49.4952 55.8323 49.894 55.4503 50.3232 55.0567C 50.7328 54.6416 51.1728 54.2129 51.6079 53.7376C 52.0373 53.2563 52.495 52.7615 52.9294 52.2066C 53.3829 51.6688 53.811 51.0723 54.2603 50.4595C 55.1295 49.2113 55.9857 47.8179 56.7668 46.2698C 58.3147 43.1724 59.5437 39.4345 60.0049 35.2767C 60.2359 33.2004 60.2769 31.0291 60.0897 28.8101C 59.9025 26.591 59.4819 24.3239 58.8023 22.0816C 57.4605 17.5928 55.0093 13.229 51.6205 9.60026C 48.234 5.97549 43.8927 3.09955 39.0706 1.5067L 38.1657 1.21274L 37.2471 0.963833C 36.6379 0.784347 36.0111 0.674984 35.3922 0.534739C 35.0814 0.469493 34.7661 0.427931 34.4533 0.374062C 34.1393 0.327623 33.8281 0.261448 33.5114 0.233817C 32.8799 0.16741 32.2504 0.0808017 31.6155 0.0580468C 29.0831 -0.0965939 26.5306 0.0534029 24.0449 0.560281L 23.1145 0.75184L 22.1947 0.99007C 21.5786 1.13519 20.9813 1.3509 20.3771 1.5341C 19.1849 1.9539 18.0075 2.41458 16.8823 2.98206C 15.7453 3.52399 14.6641 4.17089 13.6119 4.84796C 13.099 5.20856 12.5722 5.54454 12.0834 5.93486L 11.3418 6.50443L 10.6275 7.1065C 8.72844 8.71398 7.07791 10.5764 5.65586 12.5561C 4.2338 14.5388 3.09729 16.6859 2.20617 18.8803C 0.427529 23.2822 -0.199708 27.9284 0.0540286 32.2233C 0.301901 36.5319 1.45082 40.4994 3.08669 43.8176C 4.72008 47.1485 6.81854 49.8312 8.91226 51.9093C 9.97006 52.9419 11.0333 53.8194 12.0464 54.5831C 13.0799 55.3177 14.0477 55.963 14.9672 56.462C 16.7912 57.4892 18.319 58.0827 19.3603 58.4665C 19.8879 58.6381 20.2923 58.7697 20.565 58.8582C 20.7005 58.9046 20.8056 58.932 20.876 58.9504C 20.9461 58.9692 20.9818 58.9787 20.9818 58.9787"/>
<path id="path4_fill" d="M 3.346 18.07C 2.43133 18.07 1.71733 17.8133 1.204 17.3C 0.7 16.7773 0.448 16.0913 0.448 15.242C 0.448 14.486 0.597333 13.8233 0.896 13.254C 1.19467 12.6847 1.582 12.246 2.058 11.938C 2.534 11.63 3.03333 11.476 3.556 11.476C 4.06933 11.476 4.466 11.63 4.746 11.938C 5.03533 12.2367 5.18 12.624 5.18 13.1C 5.18 13.492 5.09133 13.8233 4.914 14.094C 4.746 14.3647 4.522 14.5 4.242 14.5C 4.06467 14.5 3.92 14.458 3.808 14.374C 3.70533 14.29 3.654 14.1733 3.654 14.024C 3.654 13.9587 3.66333 13.884 3.682 13.8C 3.70067 13.716 3.71467 13.6553 3.724 13.618C 3.77067 13.478 3.794 13.3473 3.794 13.226C 3.794 13.1047 3.76133 13.0113 3.696 12.946C 3.64 12.8807 3.556 12.848 3.444 12.848C 3.22933 12.848 3.02867 12.946 2.842 13.142C 2.65533 13.3287 2.506 13.5853 2.394 13.912C 2.282 14.2387 2.226 14.598 2.226 14.99C 2.226 16.0727 2.69733 16.614 3.64 16.614C 4.02267 16.614 4.43333 16.488 4.872 16.236C 5.32 15.9747 5.75867 15.5873 6.188 15.074C 6.3 14.9433 6.426 14.878 6.566 14.878C 6.68733 14.878 6.78067 14.934 6.846 15.046C 6.92067 15.158 6.958 15.312 6.958 15.508C 6.958 15.8627 6.86933 16.152 6.692 16.376C 6.25333 16.9173 5.726 17.3373 5.11 17.636C 4.50333 17.9253 3.91533 18.07 3.346 18.07ZM 7.6603 10.552C 7.2683 10.552 6.9743 10.4633 6.7783 10.286C 6.5823 10.0993 6.4843 9.84267 6.4843 9.516C 6.4843 9.18933 6.6103 8.91867 6.8623 8.704C 7.12363 8.48 7.44563 8.368 7.8283 8.368C 8.17363 8.368 8.45363 8.452 8.6683 8.62C 8.88296 8.788 8.9903 9.026 8.9903 9.334C 8.9903 9.70733 8.86896 10.006 8.6263 10.23C 8.38363 10.4447 8.06163 10.552 7.6603 10.552ZM 7.5483 18.07C 6.94163 18.07 6.4983 17.8553 6.2183 17.426C 5.94763 16.9967 5.8123 16.4273 5.8123 15.718C 5.8123 15.298 5.86363 14.7613 5.9663 14.108C 6.0783 13.4453 6.2183 12.8293 6.3863 12.26C 6.4703 11.9613 6.5823 11.756 6.7223 11.644C 6.8623 11.532 7.0863 11.476 7.3943 11.476C 7.8703 11.476 8.1083 11.6347 8.1083 11.952C 8.1083 12.1853 8.01963 12.7267 7.8423 13.576C 7.6183 14.6027 7.5063 15.298 7.5063 15.662C 7.5063 15.942 7.54363 16.1567 7.6183 16.306C 7.69296 16.4553 7.81896 16.53 7.9963 16.53C 8.1643 16.53 8.3743 16.4133 8.6263 16.18C 8.8783 15.9467 9.2143 15.578 9.6343 15.074C 9.7463 14.9433 9.8723 14.878 10.0123 14.878C 10.1336 14.878 10.227 14.934 10.2923 15.046C 10.367 15.158 10.4043 15.312 10.4043 15.508C 10.4043 15.8813 10.3156 16.1707 10.1383 16.376C 9.2143 17.5053 8.35096 18.07 7.5483 18.07ZM 10.2656 18.07C 9.91094 18.07 9.65894 17.8833 9.50961 17.51C 9.36961 17.1367 9.29961 16.5393 9.29961 15.718C 9.29961 14.5047 9.47228 13.352 9.81761 12.26C 9.90161 11.9893 10.0369 11.7933 10.2236 11.672C 10.4196 11.5413 10.6903 11.476 11.0356 11.476C 11.2223 11.476 11.3529 11.4993 11.4276 11.546C 11.5023 11.5927 11.5396 11.6813 11.5396 11.812C 11.5396 11.9613 11.4696 12.2973 11.3296 12.82C 11.2363 13.1933 11.1616 13.52 11.1056 13.8C 11.0496 14.08 11.0029 14.4253 10.9656 14.836C 11.2736 14.0333 11.6189 13.38 12.0016 12.876C 12.3843 12.372 12.7576 12.0127 13.1216 11.798C 13.4949 11.5833 13.8356 11.476 14.1436 11.476C 14.7503 11.476 15.0536 11.7793 15.0536 12.386C 15.0536 12.5073 15.0116 12.8013 14.9276 13.268C 14.8529 13.6413 14.8156 13.8747 14.8156 13.968C 14.8156 14.2947 14.9323 14.458 15.1656 14.458C 15.4269 14.458 15.7629 14.2527 16.1736 13.842C 16.2949 13.7207 16.4209 13.66 16.5516 13.66C 16.6729 13.66 16.7663 13.716 16.8316 13.828C 16.9063 13.9307 16.9436 14.0707 16.9436 14.248C 16.9436 14.5933 16.8503 14.864 16.6636 15.06C 16.4023 15.3307 16.0943 15.564 15.7396 15.76C 15.3943 15.9467 15.0256 16.04 14.6336 16.04C 14.1389 16.04 13.7609 15.914 13.4996 15.662C 13.2476 15.41 13.1216 15.0693 13.1216 14.64C 13.1216 14.5 13.1356 14.36 13.1636 14.22C 13.1823 14.0333 13.1916 13.9073 13.1916 13.842C 13.1916 13.6927 13.1403 13.618 13.0376 13.618C 12.8976 13.618 12.7109 13.7767 12.4776 14.094C 12.2536 14.402 12.0296 14.8127 11.8056 15.326C 11.5816 15.8393 11.3996 16.3807 11.2596 16.95C 11.1569 17.3887 11.0356 17.6873 10.8956 17.846C 10.7649 17.9953 10.5549 18.07 10.2656 18.07ZM 18.3167 18.07C 17.402 18.07 16.688 17.8133 16.1747 17.3C 15.6707 16.7773 15.4187 16.0913 15.4187 15.242C 15.4187 14.486 15.568 13.8233 15.8667 13.254C 16.1654 12.6847 16.5527 12.246 17.0287 11.938C 17.5047 11.63 18.004 11.476 18.5267 11.476C 19.04 11.476 19.4367 11.63 19.7167 11.938C 20.006 12.2367 20.1507 12.624 20.1507 13.1C 20.1507 13.492 20.062 13.8233 19.8847 14.094C 19.7167 14.3647 19.4927 14.5 19.2127 14.5C 19.0354 14.5 18.8907 14.458 18.7787 14.374C 18.676 14.29 18.6247 14.1733 18.6247 14.024C 18.6247 13.9587 18.634 13.884 18.6527 13.8C 18.6714 13.716 18.6854 13.6553 18.6947 13.618C 18.7414 13.478 18.7647 13.3473 18.7647 13.226C 18.7647 13.1047 18.732 13.0113 18.6667 12.946C 18.6107 12.8807 18.5267 12.848 18.4147 12.848C 18.2 12.848 17.9994 12.946 17.8127 13.142C 17.626 13.3287 17.4767 13.5853 17.3647 13.912C 17.2527 14.2387 17.1967 14.598 17.1967 14.99C 17.1967 16.0727 17.668 16.614 18.6107 16.614C 18.9934 16.614 19.404 16.488 19.8427 16.236C 20.2907 15.9747 20.7294 15.5873 21.1587 15.074C 21.2707 14.9433 21.3967 14.878 21.5367 14.878C 21.658 14.878 21.7514 14.934 21.8167 15.046C 21.8914 15.158 21.9287 15.312 21.9287 15.508C 21.9287 15.8627 21.84 16.152 21.6627 16.376C 21.224 16.9173 20.6967 17.3373 20.0807 17.636C 19.474 17.9253 18.886 18.07 18.3167 18.07ZM 26.103 14.878C 26.2243 14.878 26.3177 14.934 26.383 15.046C 26.4577 15.158 26.495 15.312 26.495 15.508C 26.495 15.8813 26.4063 16.1707 26.229 16.376C 25.8277 16.8707 25.389 17.2767 24.913 17.594C 24.4463 17.9113 23.9143 18.07 23.317 18.07C 22.4957 18.07 21.8843 17.6967 21.483 16.95C 21.091 16.2033 20.895 15.2373 20.895 14.052C 20.895 12.9133 21.0397 11.616 21.329 10.16C 21.6277 8.704 22.0617 7.45333 22.631 6.408C 23.2097 5.36267 23.8957 4.84 24.689 4.84C 25.137 4.84 25.487 5.05 25.739 5.47C 26.0003 5.88067 26.131 6.47333 26.131 7.248C 26.131 8.35867 25.823 9.64667 25.207 11.112C 24.591 12.5773 23.7557 14.0287 22.701 15.466C 22.7663 15.8487 22.8737 16.124 23.023 16.292C 23.1723 16.4507 23.3683 16.53 23.611 16.53C 23.9937 16.53 24.3297 16.4227 24.619 16.208C 24.9083 15.984 25.277 15.606 25.725 15.074C 25.837 14.9433 25.963 14.878 26.103 14.878ZM 24.381 6.226C 24.1663 6.226 23.9237 6.61333 23.653 7.388C 23.3823 8.16267 23.1443 9.124 22.939 10.272C 22.7337 11.42 22.6217 12.5213 22.603 13.576C 23.2657 12.484 23.793 11.392 24.185 10.3C 24.577 9.19867 24.773 8.19533 24.773 7.29C 24.773 6.58067 24.6423 6.226 24.381 6.226ZM 30.3754 15.298C 30.4967 15.298 30.5901 15.354 30.6554 15.466C 30.7301 15.578 30.7674 15.732 30.7674 15.928C 30.7674 16.264 30.6881 16.5533 30.5294 16.796C 30.2681 17.1973 29.9227 17.51 29.4934 17.734C 29.0734 17.958 28.5694 18.07 27.9814 18.07C 27.0854 18.07 26.3901 17.804 25.8954 17.272C 25.4007 16.7307 25.1534 16.0027 25.1534 15.088C 25.1534 14.444 25.2887 13.8467 25.5594 13.296C 25.8301 12.736 26.2034 12.2927 26.6794 11.966C 27.1647 11.6393 27.7107 11.476 28.3174 11.476C 28.8587 11.476 29.2927 11.6393 29.6194 11.966C 29.9461 12.2833 30.1094 12.7173 30.1094 13.268C 30.1094 13.912 29.8761 14.4673 29.4094 14.934C 28.9521 15.3913 28.1681 15.7553 27.0574 16.026C 27.2814 16.4553 27.6594 16.67 28.1914 16.67C 28.5741 16.67 28.8867 16.5813 29.1294 16.404C 29.3814 16.2267 29.6707 15.928 29.9974 15.508C 30.1094 15.368 30.2354 15.298 30.3754 15.298ZM 28.0794 12.848C 27.7341 12.848 27.4401 13.0487 27.1974 13.45C 26.9641 13.8513 26.8474 14.3367 26.8474 14.906L 26.8474 14.934C 27.3981 14.8033 27.8321 14.6073 28.1494 14.346C 28.4667 14.0847 28.6254 13.7813 28.6254 13.436C 28.6254 13.2587 28.5741 13.1187 28.4714 13.016C 28.3781 12.904 28.2474 12.848 28.0794 12.848Z"/>
</defs>
</svg>
